<svg preserveAspectRatio="xMinYMin meet" shape-rendering="crispEdges" xmlns="http://www.w3.org/2000/svg" width="82" height="82" viewBox="0 0 82 82"><path d="M57 1h2v3h-1V2h-1V1zm-2 1h2v1h-2V2z" fill="#231C60"/><path d="M57 2h1v2h-2v1h-3v1h-2V5h1V4h3V3h2V2z" fill="#7C75AD"/><path d="M41 3h1v1h-1V3z" fill="#554D8E"/><path d="M42 3h3v1h-3V3z" fill="#9060AD"/><path d="M45 3h2v1h-2V3z" fill="#554D8E"/><path d="M52 3h3v1h-3V3z" fill="#231C60"/><path d="M40 4h1v2h-1V4z" fill="#554D8E"/><path d="M41 4h6v1h-1v1h4v1h-4v2h1v2h1v1h-1v1h-1v-2h-2v1h-2v-1h1v-1h2V9h-1V6h-2V5h-1V4z" fill="#7C75AD"/><path d="M47 4h3v1h-3V4z" fill="#554D8E"/><path d="M50 4h2v1h-2V4z" fill="#231C60"/><path d="M56 4h1v1h-1V4z" fill="#554D8E"/><path d="M57 4h1v1h-1V4z"/><path d="M41 5h1v1h2v3h1v1h-3V9h-1V5z" fill="#9060AD"/><path d="M46 5h5v1h-5V5z" fill="#6678C6"/><path d="M53 5h1v1h-1V5z" fill="#F0AEF4"/><path d="M54 5h1v1h-1V5z" fill="#554D8E"/><path d="M55 5h2v1h-2V5z"/><path d="M40 6h1v3h-2V8h1V6z" fill="#231C60"/><path d="M50 6h3v1h-3V6z" fill="#F8CFF1"/><path d="M53 6h2v1h-2V6z"/><path d="M20 7h1v1h-1V7z" fill="#554D8E"/><path d="M21 7h3v1h3v1h2v1h1v1h3v1h-3v1h-1v-1h-2v-1h-1v1h-1v-1h-1v-1h-1V9h-1V8h-1V7z" fill="#9060AD"/><path d="M46 7h1v1h-1V7z" fill="#D27CD6"/><path d="M47 7h2v1h-2V7z" fill="#F0AEF4"/><path d="M49 7h1v1h-1V7z" fill="#F8CFF1"/><path d="M50 7h1v1h-1V7z" fill="#F0AEF4"/><path d="M51 7h2v1h-2V7z"/><path d="M19 8h1v2h-1V8z" fill="#231C60"/><path d="M20 8h1v2h-1V8z" fill="#9060AD"/><path d="M21 8h1v1h1v1h1v1h1v1h1v1h1v2h1v2h1v1h-3v1h-2v1h-1v-2h-1v-3h-1v-2h-1v-3h1V8z" fill="#D27CD6"/><path d="M27 8h2v1h-2V8z" fill="#554D8E"/><path d="M46 8h5v1h-3v2h-1V9h-1V8z"/><path d="M29 9h6v1h-6V9z" fill="#554D8E"/><path d="M35 9h4v1h-4V9z" fill="#231C60"/><path d="M39 9h3v1h-3V9z" fill="#7C75AD"/><path d="M18 10h1v2h-1v-2z" fill="#231C60"/><path d="M19 10h1v5h1v2h1v3h1v3h-1v1h-1v2h-1v-2h-1v-3h-1v-2h-1v-4h1v-3h1v-2z" fill="#554D8E"/><path d="M30 10h13v1h-2v1h-8v-1h-3v-1z" fill="#D27CD6"/><path d="M65 10h1v1h-1v-1z" fill="#231C60"/><path d="M66 10h1v3h-1v-3z"/><path d="M26 11h1v1h-1v-1z" fill="#554D8E"/><path d="M41 11h1v1h-1v-1z" fill="#9060AD"/><path d="M44 11h2v1h-2v-1z" fill="#554D8E"/><path d="M48 11h1v2h-2v-1h1v-1z"/><path d="M63 11h2v1h-2v-1z" fill="#231C60"/><path d="M65 11h1v2h-1v-2z" fill="#302839"/><path d="M17 12h1v3h-1v-3z" fill="#231C60"/><path d="M26 12h1v1h-1v-1z" fill="#9060AD"/><path d="M27 12h2v1h10v-1h5v1h-4v1h-3v1h-3v1h-2v1h-2v-1h-1v-1h-1v-2h-1v-1z" fill="#554D8E"/><path d="M30 12h9v1h-9v-1z" fill="#7C75AD"/><path d="M44 12h1v1h-1v-1z" fill="#F0AEF4"/><path d="M45 12h1v1h-1v-1z" fill="#D27CD6"/><path d="M61 12h2v1h-2v-1z" fill="#231C60"/><path d="M63 12h2v1h-1v1h-2v1h-4v1h-3v1h-5v1h-4v1h-2v-1h1v-1h2v-1h6v-1h3v-1h5v-1h2v-1z" fill="#554D8E"/><path d="M20 13h1v2h-1v-2z" fill="#9060AD"/><path d="M24 13h1v1h1v2h-1v-1h-1v-2z" fill="#F8CFF1"/><path d="M27 13h1v2h-1v-2z" fill="#9060AD"/><path d="M40 13h1v1h-1v-1z" fill="#7C75AD"/><path d="M41 13h1v1h-1v-1z" fill="#F8CFF1"/><path d="M42 13h1v1h-1v-1z" fill="#F0AEF4"/><path d="M43 13h1v1h-1v-1z" fill="#D27CD6"/><path d="M44 13h3v1h-3v-1z"/><path d="M56 13h5v1h-5v-1z" fill="#231C60"/><path d="M64 13h1v3h-1v1h-1v2h-1v1h-1v1h-1v1h-2v-1h1v-1h1v-1h1v-1h1v-2h1v-2h1v-1z" fill="#354057"/><path d="M65 13h1v3h-1v-3z"/><path d="M37 14h1v1h-1v-1z" fill="#7C75AD"/><path d="M38 14h3v1h-3v-1z" fill="#F8CFF1"/><path d="M41 14h3v1h-3v-1z"/><path d="M53 14h3v1h-3v-1z" fill="#231C60"/><path d="M62 14h1v2h-1v2h-1v1h-1v1h-1v1h-1v1h1v1h-1v1h-2v1h-2v1h4v2h-2v1h-2v1h2v1h-5v1h3v1h-1v1h-1v1h-2v1h-2v-3h-1v-4h3v-1h2v-1h-4v-1h1v-1h1v-1h2v-1h-3v-1h-2v-1h-1v-1h3v-1h3v-1h3v-2h1v1h2v-2h4v-1z" fill="#302839"/><path d="M16 15h1v4h1v2h1v3h1v2h1v1h-1v2h-1v3h-1v1h-1v-3h-1v-4h-1v-7h1v-4z" fill="#231C60"/><path d="M21 15h1v2h-1v-2zm7 0h1v1h1v1h-2v-2z" fill="#9060AD"/><path d="M34 15h1v1h-1v-1z" fill="#7C75AD"/><path d="M35 15h2v1h-2v-1z" fill="#F0AEF4"/><path d="M37 15h1v1h-1v-1z" fill="#F8CFF1"/><path d="M38 15h3v1h-3v-1z"/><path d="M47 15h6v1h-6v-1z" fill="#231C60"/><path d="M32 16h1v1h-1v-1z" fill="#7C75AD"/><path d="M33 16h2v1h-2v-1z" fill="#D27CD6"/><path d="M35 16h1v1h-1v-1z" fill="#7C75AD"/><path d="M36 16h2v1h-2v-1z"/><path d="M43 16h4v1h-4v-1z" fill="#231C60"/><path d="M56 16h2v1h-2v-1z" fill="#1D181D"/><path d="M64 16h1v2h-1v-2zm-49 1h1v2h-1v-2z"/><path d="M29 17h1v1h-1v-1z" fill="#F7FF61"/><path d="M30 17h1v1h1v1h-2v-2z" fill="#BAC760"/><path d="M31 17h2v1h1v2h-1v-1h-1v-1h-1v-1z" fill="#1D181D"/><path d="M33 17h3v1h-1v1h-1v-1h-1v-1z"/><path d="M40 17h3v1h-3v-1z" fill="#554D8E"/><path d="M43 17h2v1h-1v1h-2v1h-2v1h-2v1h-2v1h-1v-2h-1v-1h3v-1h3v-1h3v-1z" fill="#9060AD"/><path d="M50 17h1v1h-1v-1z" fill="#302839"/><path d="M51 17h4v1h-3v1h-3v1h-3v1h1v1h2v1h3v1h-2v1h-1v1h-1v1h4v1h-2v1h-3v1h-3v-1h-1v-1h-1v-1h-1v-1h2v-1h2v-1h-3v1h-2v-1h1v-1h2v-1h-4v-1h2v-1h3v-1h3v-1h4v-1zm12 0h1v1h-1v-1z" fill="#1D181D"/><path d="M22 18h1v2h-1v-2z" fill="#9060AD"/><path d="M26 18h4v1h-3v1h-2v-1h1v-1z" fill="#FFF"/><path d="M37 18h3v1h-3v-1z" fill="#554D8E"/><path d="M46 18h1v1h-1v-1z" fill="#302839"/><path d="M63 18h1v1h-1v-1zm-49 1h1v2h-1v-2z"/><path d="M24 19h1v2h-1v-2z" fill="#F7FF61"/><path d="M27 19h1v1h-1v-1z" fill="#B5723B"/><path d="M28 19h2v1h-2v-1z" fill="#8E351C"/><path d="M30 19h1v1h-1v-1z" fill="#B5723B"/><path d="M31 19h2v2h-1v-1h-1v-1z" fill="#9F8226"/><path d="M34 19h3v1h-3v-1z" fill="#554D8E"/><path d="M42 19h2v1h-2v-1z" fill="#302839"/><path d="M62 19h1v1h-1v-1z"/><path d="M23 20h1v1h-1v-1z" fill="#BAC760"/><path d="M25 20h1v1h-1v-1z" fill="#B5723B"/><path d="M26 20h2v1h-2v-1z" fill="#531414"/><path d="M28 20h3v1h-1v1h-1v1h-3v-2h2v-1z" fill="#302839"/><path d="M31 20h1v1h-1v-1z" fill="#B5723B"/><path d="M33 20h1v1h-1v-1z" fill="#554D8E"/><path d="M40 20h1v1h-1v-1z" fill="#302839"/><path d="M61 20h1v1h-1v-1zm-48 1h1v2h-1v-2z"/><path d="M14 21h1v3h-1v5h-1v-6h1v-2z" fill="#3057A3"/><path d="M23 21h1v1h-1v-1z" fill="#B5723B"/><path d="M24 21h1v1h-1v-1z" fill="#BAC760"/><path d="M25 21h1v1h-1v-1z" fill="#1D181D"/><path d="M30 21h1v1h-1v-1z" fill="#8E351C"/><path d="M31 21h1v1h-1v-1z" fill="#9F8226"/><path d="M32 21h3v2h-1v1h-1v1h-1v1h-1v1h-1v1h-1v2h-2v-4h1v-1h1v-1h3v-1h1v-1h-1v-1z" fill="#D27CD6"/><path d="M38 21h1v1h-1v-1z" fill="#302839"/><path d="M60 21h1v1h-1v-1z"/><path d="M23 22h1v1h-1v-1z" fill="#8E351C"/><path d="M24 22h2v3h-1v-2h-1v-1z" fill="#9F8226"/><path d="M29 22h1v1h-1v-1z" fill="#8E351C"/><path d="M30 22h1v1h-1v-1z" fill="#9F8226"/><path d="M31 22h2v1h-1v1h-2v-1h1v-1z" fill="#F8CFF1"/><path d="M36 22h1v1h-1v-1z" fill="#302839"/><path d="M37 22h1v1h-1v-1z" fill="#1D181D"/><path d="M38 22h5v1h-2v1h-1v1h2v-1h3v1h-2v1h-2v1h-1v-1h-1v-1h-4v-1h1v-1h2v-1z"/><path d="M52 22h1v1h-1v-1z" fill="#1D181D"/><path d="M59 22h1v1h-1v-1zm-47 1h1v6h-1v-6z"/><path d="M22 23h1v1h-1v-1z" fill="#231C60"/><path d="M23 23h1v1h-1v-1z" fill="#531414"/><path d="M24 23h1v2h-1v-2z" fill="#8E351C"/><path d="M26 23h1v1h-1v-1z" fill="#1D181D"/><path d="M27 23h1v1h-1v-1z" fill="#B5723B"/><path d="M28 23h2v1h-2v-1z" fill="#BAC760"/><path d="M34 23h1v1h-1v-1z" fill="#9060AD"/><path d="M35 23h1v1h-1v-1z" fill="#1D181D"/><path d="M58 23h1v1h-1v-1z"/><path d="M14 24h1v4h1v1h-2v-5z" fill="#569AD8"/><path d="M21 24h1v1h-1v-1z" fill="#231C60"/><path d="M22 24h2v1h-2v-1z" fill="#1D181D"/><path d="M26 24h2v1h-2v-1z" fill="#BAC760"/><path d="M28 24h1v1h-1v-1z" fill="#231C60"/><path d="M33 24h1v1h-1v-1z" fill="#554D8E"/><path d="M34 24h1v2h-1v1h-1v1h-1v1h-1v1h-1v-2h1v-1h1v-1h1v-1h1v-1zm22 0h1v1h-1v-1z" fill="#1D181D"/><path d="M57 24h1v1h5v2h-1v-1h-6v-1h1v-1z"/><path d="M21 25h1v2h-1v-2z" fill="#1D181D"/><path d="M22 25h2v2h-2v-2z" fill="#302839"/><path d="M24 25h3v1h-3v-1z" fill="#531414"/><path d="M27 25h1v1h-1v-1z" fill="#231C60"/><path d="M32 25h1v1h-1v-1z" fill="#554D8E"/><path d="M35 25h4v1h1v1h-1v1h-2v1h-5v-1h1v-1h1v-1h1v-1z" fill="#410C11"/><path d="M54 25h2v1h-2v-1z" fill="#1D181D"/><path d="M15 26h1v2h-1v-2z" fill="#3057A3"/><path d="M24 26h2v1h-1v1h-1v2h-1v1h-1v-4h2v-1z" fill="#1D181D"/><path d="M26 26h1v1h-1v-1z" fill="#231C60"/><path d="M31 26h1v1h-1v-1z" fill="#554D8E"/><path d="M58 26h4v1h-4v-1z" fill="#525165"/><path d="M20 27h2v4h1v2h-1v3h-1v-1h-2v-6h1v-2z"/><path d="M25 27h2v1h-1v2h-1v-3zm5 0h1v1h-1v-1z" fill="#554D8E"/><path d="M39 27h1v2h-3v-1h2v-1z" fill="#932530"/><path d="M40 27h1v1h2v2h-2v-1h-1v-2z" fill="#8E6350"/><path d="M41 27h1v1h-1v-1z" fill="#593C38"/><path d="M58 27h2v1h-1v1h-2v1h-3v-1h2v-1h2v-1z" fill="#354057"/><path d="M60 27h1v1h-1v-1z" fill="#302839"/><path d="M61 27h1v1h-1v-1z"/><path d="M24 28h1v2h-1v-2z" fill="#231C60"/><path d="M26 28h1v2h1v2h-1v2h-1v2h-2v-1h-1v-1h1v-2h1v-2h1v-2zm3 0h1v1h-1v-1z" fill="#9060AD"/><path d="M59 28h1v1h-1v-1z" fill="#302839"/><path d="M60 28h1v1h-1v-1zm-47 1h1v2h-1v-2z"/><path d="M14 29h1v2h-1v-2z" fill="#3057A3"/><path d="M15 29h1v2h-1v-2z" fill="#8AEEFF"/><path d="M29 29h1v1h-1v-1z" fill="#554D8E"/><path d="M31 29h1v1h-1v-1z" fill="#593C38"/><path d="M32 29h1v3h-2v1h-1v2h-1v-3h1v-1h1v-1h1v-1z" fill="#8E6350"/><path d="M33 29h4v1h-2v1h-1v-1h-1v-1z" fill="#932530"/><path d="M37 29h3v1h-1v1h-4v-1h2v-1z" fill="#C65143"/><path d="M40 29h1v1h-1v-1z" fill="#410C11"/><path d="M43 29h1v3h-1v-3z" fill="#593C38"/><path d="M57 29h1v1h-1v-1z" fill="#302839"/><path d="M58 29h1v1h-1v-1z" fill="#1D181D"/><path d="M59 29h1v1h-1v-1z"/><path d="M16 30h1v1h-1v-1z" fill="#3057A3"/><path d="M23 30h1v2h-1v-2z" fill="#231C60"/><path d="M24 30h1v2h-1v-2zm4 0h1v1h-1v-1z" fill="#554D8E"/><path d="M29 30h1v1h-1v-1z" fill="#1D181D"/><path d="M30 30h1v1h-1v-1z" fill="#593C38"/><path d="M33 30h1v1h2v1h1v2h-1v-1h-2v-1h-1v-2zm6 0h1v2h-1v-2z" fill="#410C11"/><path d="M40 30h1v2h1v1h-1v1h-1v-1h-1v-1h1v-2z" fill="#932530"/><path d="M41 30h1v1h1v1h1v2h-1v-1h-1v-1h-1v-2z" fill="#1D181D"/><path d="M42 30h1v1h-1v-1z" fill="#AA7182"/><path d="M44 30h3v3h-2v-1h-1v-2z" fill="#410C11"/><path d="M56 30h1v1h-1v-1z" fill="#1D181D"/><path d="M57 30h2v1h-2v-1zm-43 1h1v2h-1v-2z"/><path d="M15 31h2v3h-1v-2h-1v-1z" fill="#569AD8"/><path d="M28 31h1v2h-1v-2z" fill="#1D181D"/><path d="M29 31h1v1h-1v-1z" fill="#5A1E24"/><path d="M36 31h3v1h-1v1h-1v-1h-1v-1zm9 0h1v1h-1v-1z" fill="#932530"/><path d="M51 31h2v1h-2v-1z" fill="#1D181D"/><path d="M53 31h4v1h-2v2h-1v-2h-1v-1z"/><path d="M15 32h1v1h-1v-1z" fill="#3057A3"/><path d="M18 32h1v3h2v1h1v1h-1v2h-1v-1h-1v-1h-1v-5z" fill="#1D181D"/><path d="M23 32h1v2h-1v-2zm4 0h1v1h-1v-1z" fill="#554D8E"/><path d="M31 32h1v1h-1v-1z" fill="#AA7182"/><path d="M32 32h1v3h-1v1h-2v-1h1v-2h1v-1z" fill="#1D181D"/><path d="M33 32h1v3h-1v-3z" fill="#932530"/><path d="M38 32h1v1h-1v-1zm6 0h1v1h1v1h-1v1h-2v-1h1v-2z" fill="#C65143"/><path d="M15 33h1v2h-1v-2z"/><path d="M17 33h1v3h-1v-1h-1v-1h1v-1z" fill="#3057A3"/><path d="M22 33h1v1h-1v-1zm5 0h1v2h-1v-2z" fill="#1D181D"/><path d="M28 33h1v2h1v2h-2v-4z" fill="#593C38"/><path d="M30 33h1v1h-1v-1z" fill="#AA7182"/><path d="M34 33h1v1h-1v-1z" fill="#C65143"/><path d="M35 33h1v1h1v5h-1v-4h-1v-2z" fill="#932530"/><path d="M37 33h1v4h-1v-4z" fill="#C65143"/><path d="M38 33h1v1h1v1h-1v1h-1v-3z" fill="#E57257"/><path d="M39 33h1v1h-1v-1z" fill="#C65143"/><path d="M41 33h1v1h-1v-1z" fill="#E57257"/><path d="M42 33h1v1h-1v-1z" fill="#C65143"/><path d="M46 33h1v1h-1v-1z" fill="#932530"/><path d="M47 33h1v3h-1v-3z" fill="#410C11"/><path d="M53 33h1v1h-1v-1z" fill="#1D181D"/><path d="M22 34h1v2h-1v-2z" fill="#231C60"/><path d="M26 34h1v1h-1v-1z" fill="#554D8E"/><path d="M30 34h1v1h-1v-1z" fill="#593C38"/><path d="M34 34h1v3h-1v-3z" fill="#E57257"/><path d="M40 34h1v1h-1v-1z" fill="#C65143"/><path d="M41 34h1v2h-1v-2z" fill="#932530"/><path d="M42 34h1v1h-1v-1z" fill="#E57257"/><path d="M45 34h1v2h-3v-1h2v-1z" fill="#FF9A71"/><path d="M46 34h1v2h-1v-2z" fill="#C65143"/><path d="M52 34h2v1h-2v-1zm-36 1h1v1h-1v-1z"/><path d="M23 35h1v1h2v1h-1v2h-1v2h-1v2h-1v1h-2v-2h1v-3h1v-3h1v-1z" fill="#554D8E"/><path d="M26 35h1v2h-1v-2z" fill="#1D181D"/><path d="M27 35h1v2h1v1h-1v1h1v2h-1v-1h-1v-1h-1v-2h1v-2z" fill="#932530"/><path d="M32 35h2v2h-1v1h-3v-1h1v-1h1v-1zm3 0h1v4h-1v-4z" fill="#C65143"/><path d="M39 35h2v2h-1v1h-2v-2h1v-1z" fill="#FF9A71"/><path d="M42 35h1v2h1v1h2v1h-1v1h-2v-1h-1v-2h-1v-1h1v-1z" fill="#C65143"/><path d="M50 35h2v1h-2v-1zm-33 1h1v1h-1v-1z"/><path d="M30 36h1v1h-1v-1z" fill="#932530"/><path d="M43 36h2v1h1v1h-2v-1h-1v-1z" fill="#E57257"/><path d="M45 36h1v1h-1v-1z" fill="#C65143"/><path d="M46 36h1v1h1v1h2v1h-2v1h1v2h-1v-1h-1v-2h-1v-3z" fill="#8E6350"/><path d="M47 36h1v1h-1v-1z" fill="#302839"/><path d="M48 36h2v2h-2v-2zm-30 1h1v1h-1v-1z"/><path d="M21 37h1v2h-1v-2z" fill="#231C60"/><path d="M25 37h1v3h-1v1h-1v-2h1v-2z" fill="#302839"/><path d="M29 37h1v1h-1v-1z" fill="#AA4D5F"/><path d="M33 37h2v1h-1v2h-3v-1h2v-2z" fill="#FF9A71"/><path d="M37 37h1v2h-1v-2z" fill="#AA4D5F"/><path d="M40 37h2v2h1v1h-1v1h-3v-3h1v-1z" fill="#FF7A5B"/><path d="M19 38h1v1h-1v-1z"/><path d="M28 38h1v1h-1v-1z" fill="#C65143"/><path d="M29 38h2v2h-1v-1h-1v-1z" fill="#E57257"/><path d="M31 38h2v1h-2v-1z" fill="#FFBEA4"/><path d="M34 38h1v1h-1v-1z" fill="#E57257"/><path d="M38 38h1v1h-1v-1z" fill="#FA6D55"/><path d="M40 38h1v1h-1v-1z" fill="#FFBEA4"/><path d="M50 38h4v1h-1v1h-1v-1h-2v-1z" fill="#593C38"/><path d="M20 39h1v2h-1v-2z"/><path d="M26 39h1v1h1v2h-1v-1h-1v-2z" fill="#593C38"/><path d="M29 39h1v1h-1v-1zm5 0h1v2h-1v-2z" fill="#C65143"/><path d="M35 39h2v3h-1v-1h-1v-2z" fill="#AA4D5F"/><path d="M37 39h1v2h-1v-2z" fill="#FF9A71"/><path d="M38 39h1v1h-1v-1z" fill="#C65143"/><path d="M45 39h1v1h-1v-1z" fill="#932530"/><path d="M46 39h1v2h1v1h-2v-3zm2 0h3v2h-2v-1h-1v-1z" fill="#AA7182"/><path d="M51 39h1v1h-1v-1z" fill="#8E6350"/><path d="M25 40h1v1h-1v-1zm4 0h3v1h3v3h-1v1h-1v-3h-3v-1h-1v-1z" fill="#AA4D5F"/><path d="M32 40h2v1h-2v-1z" fill="#E57257"/><path d="M38 40h1v1h-1v-1z" fill="#FA6D55"/><path d="M42 40h1v1h-1v-1z" fill="#ED4B2F"/><path d="M43 40h3v1h-2v1h-1v-2z" fill="#AA4D5F"/><path d="M51 40h1v2h-2v-1h1v-1zm-32 1h1v2h-1v-2z"/><path d="M20 41h1v1h-1v-1z" fill="#231C60"/><path d="M23 41h1v1h-1v-1z" fill="#302839"/><path d="M24 41h1v2h-1v-2z" fill="#AA4D5F"/><path d="M25 41h2v1h1v1h-2v-1h-1v-1z" fill="#410C11"/><path d="M28 41h2v2h1v1h-1v2h-1v-2h-1v-3z" fill="#8E6350"/><path d="M35 41h1v2h-1v-2z" fill="#932530"/><path d="M37 41h1v1h-1v-1z" fill="#FA6D55"/><path d="M38 41h4v2h-3v-1h-1v-1z" fill="#ED4B2F"/><path d="M42 41h1v1h-1v-1z" fill="#C65143"/><path d="M44 41h1v2h-1v1h-1v-2h1v-1z" fill="#AA7182"/><path d="M45 41h1v1h2v1h1v1h-3v-1h-1v-2z" fill="#EBB692"/><path d="M49 41h1v2h-1v-2zm3 0h3v2h-1v-1h-2v-1z" fill="#593C38"/><path d="M23 42h1v1h-1v-1z" fill="#410C11"/><path d="M25 42h1v1h-1v-1zm5 0h3v3h-1v1h-1v-3h-1v-1z" fill="#932530"/><path d="M36 42h2v1h-2v-1z" fill="#1D181D"/><path d="M38 42h1v1h-1v-1zm4 0h1v1h-1v-1z" fill="#932530"/><path d="M48 42h1v1h-1v-1z" fill="#AA7182"/><path d="M50 42h1v1h-1v-1z" fill="#8E6350"/><path d="M51 42h2v1h-2v-1z" fill="#AA7182"/><path d="M53 42h1v1h-1v-1z" fill="#8E6350"/><path d="M58 42h10v1H58v-1z" fill="#231C60"/><path d="M18 43h1v1h-1v-1z"/><path d="M19 43h1v1h1v2h-1v1h-1v-2h-1v-1h1v-1z" fill="#3057A3"/><path d="M22 43h1v1h-1v-1z" fill="#231C60"/><path d="M23 43h1v1h2v1h3v1h-2v2h-1v1h-3v-1h-1v1h-2v1h-2v-1h1v-1h1v-1h1v-1h1v-2h1v-1z"/><path d="M24 43h2v1h-2v-1z" fill="#410C11"/><path d="M26 43h2v1h-2v-1z" fill="#932530"/><path d="M35 43h2v1h-1v1h-1v1h-1v1h-2v-1h1v-1h1v-1h1v-1z" fill="#AA7182"/><path d="M37 43h1v1h-1v-1z" fill="#AA4D5F"/><path d="M38 43h3v1h-3v-1z" fill="#C65143"/><path d="M41 43h1v1h-1v-1z" fill="#932530"/><path d="M42 43h1v1h-1v-1z" fill="#8E6350"/><path d="M44 43h2v1h-2v-1z" fill="#D09268"/><path d="M49 43h1v1h-1v-1z" fill="#AA7182"/><path d="M50 43h1v1h-1v-1z" fill="#593C38"/><path d="M51 43h2v1h-2v-1z" fill="#8E6350"/><path d="M53 43h1v1h-1v-1z" fill="#593C38"/><path d="M54 43h2v1h-2v-1z"/><path d="M56 43h2v1h-2v-1z" fill="#231C60"/><path d="M58 43h1v1h-1v-1z" fill="#9060AD"/><path d="M59 43h1v1h2v-1h4v1h-1v2h-1v1h-2v-1h-3v-1h-3v-1h3v-1z" fill="#D27CD6"/><path d="M60 43h2v1h-2v-1z" fill="#F0AEF4"/><path d="M66 43h1v2h-2v-1h1v-1z" fill="#9060AD"/><path d="M67 43h1v2h-1v-2zm-50 1h1v1h-1v-1z"/><path d="M21 44h1v1h-1v-1z" fill="#231C60"/><path d="M26 44h3v1h-3v-1z" fill="#410C11"/><path d="M30 44h1v2h-1v-2z" fill="#AA7182"/><path d="M36 44h2v3h-1v1h-2v-2h1v-2z" fill="#EBB692"/><path d="M38 44h1v2h-1v-2z" fill="#D09268"/><path d="M39 44h1v1h2v-1h1v2h-4v-2z" fill="#AA7182"/><path d="M40 44h2v1h-2v-1z" fill="#D09268"/><path d="M43 44h1v2h-1v-2z" fill="#8E6350"/><path d="M44 44h2v1h1v1h-2v-1h-1v-1z" fill="#AA7182"/><path d="M46 44h4v1h1v1h-4v-1h-1v-1z" fill="#D09268"/><path d="M50 44h1v1h-1v-1z" fill="#AA7182"/><path d="M51 44h1v1h-1v-1z" fill="#593C38"/><path d="M52 44h2v1h-2v-1z"/><path d="M54 44h1v1h-1v-1z" fill="#554D8E"/><path d="M55 44h1v1h3v1h-2v1h-1v-1h-2v-1h1v-1z" fill="#9060AD"/><path d="M16 45h1v1h-1v-1z"/><path d="M17 45h1v1h-1v-1z" fill="#3057A3"/><path d="M18 45h1v2h-1v1h-1v1h-1v1h-1v1h-2v1h-1v-2h2v-1h1v-1h1v-1h1v-1h1v-1z" fill="#569AD8"/><path d="M21 45h1v1h-1v-1z" fill="#1D181D"/><path d="M32 45h1v1h-1v-1z" fill="#8E6350"/><path d="M35 45h1v1h-1v-1z" fill="#D09268"/><path d="M44 45h1v1h1v1h1v2h-1v1h-3v-1h2v-1h-1v-1h-3v-1h3v-1z" fill="#AA4D5F"/><path d="M51 45h1v1h-1v-1z" fill="#AA7182"/><path d="M52 45h1v1h-1v-1z" fill="#593C38"/><path d="M53 45h1v1h-1v-1z" fill="#554D8E"/><path d="M65 45h1v1h-1v-1z" fill="#F0AEF4"/><path d="M66 45h1v1h-1v-1zm-51 1h1v1h-1v-1z"/><path d="M16 46h1v1h-1v-1z" fill="#3057A3"/><path d="M20 46h1v1h-1v-1zm7 0h1v2h-1v-2z" fill="#1D181D"/><path d="M28 46h2v1h-1v1h-1v-2z" fill="#593C38"/><path d="M30 46h2v1h-1v1h-1v-2z" fill="#8E6350"/><path d="M34 46h1v3h-1v1h-1v-3h1v-1z" fill="#D09268"/><path d="M38 46h1v2h-2v-1h1v-1z" fill="#AA7182"/><path d="M39 46h1v1h-1v-1z" fill="#8E6350"/><path d="M40 46h1v1h3v1h-5v-1h1v-1z" fill="#932530"/><path d="M46 46h4v1h2v1h-4v-1h-2v-1z" fill="#593C38"/><path d="M50 46h3v1h2v1h2v1h-5v-2h-2v-1z" fill="#8D503D"/><path d="M53 46h2v1h-2v-1z" fill="#593C38"/><path d="M55 46h1v1h-1v-1zm2 0h1v1h-1v-1z" fill="#554D8E"/><path d="M58 46h2v1h-1v1h-1v-2z" fill="#231C60"/><path d="M60 46h2v1h-1v1h-1v1h-1v1h2v1h-2v1h-1v-1h-1v-2h1v-1h1v-1h1v-1z" fill="#554D8E"/><path d="M64 46h1v1h-1v-1z" fill="#F8CFF1"/><path d="M65 46h1v1h-1v-1zm-51 1h1v1h-1v-1z"/><path d="M15 47h1v1h-1v-1zm3 0h1v1h-1v-1z" fill="#3057A3"/><path d="M19 47h1v1h-1v-1z" fill="#1D181D"/><path d="M29 47h1v2h-2v-1h1v-1z" fill="#AA7182"/><path d="M31 47h1v2h-2v-1h1v-1z" fill="#593C38"/><path d="M32 47h1v1h-1v-1z" fill="#8E6350"/><path d="M47 47h1v1h-1v-1z" fill="#8D503D"/><path d="M55 47h3v2h-1v-1h-2v-1z" fill="#593C38"/><path d="M61 47h1v1h-1v-1z" fill="#9060AD"/><path d="M62 47h1v1h-1v-1z" fill="#F0AEF4"/><path d="M63 47h1v1h-1v-1z" fill="#F8CFF1"/><path d="M64 47h1v1h-1v-1z" fill="#231C60"/><path d="M13 48h1v1h-1v-1z"/><path d="M14 48h1v1h-1v-1zm3 0h1v1h-1v-1z" fill="#3057A3"/><path d="M18 48h1v1h-1v-1z" fill="#1D181D"/><path d="M22 48h1v2h-1v1h-1v1h-4v1h3v1h-5v1h-5v-1h1v-1h2v-1h2v-1h1v-1h1v-1h1v1h2v-1h2v-1zm4 0h1v1h-1v-1z" fill="#1D181D"/><path d="M27 48h1v1h-1v-1z" fill="#593C38"/><path d="M32 48h1v3h-2v-1h1v-2zm3 0h1v1h-1v-1z" fill="#AA7182"/><path d="M36 48h1v1h-1v-1z" fill="#8E6350"/><path d="M37 48h1v1h-1v-1z" fill="#593C38"/><path d="M38 48h1v1h-1v-1z" fill="#932530"/><path d="M39 48h2v1h-2v-1z" fill="#AA4D5F"/><path d="M41 48h4v1h-4v-1z" fill="#FA6D55"/><path d="M47 48h5v1h-3v1h1v1h-2v-1h-2v-1h1v-1z" fill="#8E6350"/><path d="M60 48h1v1h1v1h2v1h-1v1h-3v1h-2v-1h1v-1h2v-1h-2v-1h1v-1z" fill="#9060AD"/><path d="M61 48h2v1h-2v-1z" fill="#F8CFF1"/><path d="M63 48h1v1h-1v-1z" fill="#231C60"/><path d="M12 49h1v1h-1v-1z"/><path d="M13 49h1v1h-1v-1z" fill="#3057A3"/><path d="M16 49h1v1h-1v-1z" fill="#231C60"/><path d="M23 49h1v2h-1v1h-1v1h-1v1h-1v-1h-3v-1h4v-1h1v-1h1v-1z" fill="#302839"/><path d="M24 49h1v1h-1v-1z" fill="#1D181D"/><path d="M25 49h1v1h-1v-1z" fill="#593C38"/><path d="M26 49h3v1h-3v-1z" fill="#8E6350"/><path d="M29 49h2v3h-1v-1h-4v-1h3v-1z" fill="#1D181D"/><path d="M31 49h1v1h-1v-1z" fill="#8E6350"/><path d="M34 49h1v1h-1v-1z" fill="#AA7182"/><path d="M35 49h1v1h-1v-1z" fill="#8E6350"/><path d="M36 49h1v2h-1v1h-1v-2h1v-1z" fill="#593C38"/><path d="M37 49h2v2h-2v-2z" fill="#AA4D5F"/><path d="M39 49h2v1h-2v-1z" fill="#FA6D55"/><path d="M41 49h2v1h-2v-1z" fill="#EBB692"/><path d="M49 49h3v1h2v1h1v1h-3v-1h-2v-1h-1v-1z" fill="#AA7182"/><path d="M52 49h3v1h1v1h1v1h-2v-1h-1v-1h-2v-1z" fill="#8E6350"/><path d="M55 49h2v2h-1v-1h-1v-1z" fill="#593C38"/><path d="M62 49h4v1h-4v-1z" fill="#554D8E"/><path d="M66 49h1v1h-1v-1z" fill="#231C60"/><path d="M10 50h2v1h-2v-1z"/><path d="M15 50h1v1h-1v-1zm9 0h2v1h-1v1h-1v1h-1v1h-2v-1h1v-1h1v-1h1v-1z" fill="#231C60"/><path d="M33 50h2v1h-2v-1zm6 0h2v1h-1v1h-3v-1h2v-1z" fill="#8E6350"/><path d="M41 50h2v1h-1v1h-1v-2z" fill="#D09268"/><path d="M43 50h1v1h-1v-1z" fill="#AA7182"/><path d="M44 50h1v1h-1v-1z" fill="#D09268"/><path d="M45 50h1v1h-1v-1z" fill="#8E6350"/><path d="M46 50h2v3h-1v-1h-1v-2z" fill="#AA7182"/><path d="M64 50h1v1h-1v-1z" fill="#D27CD6"/><path d="M65 50h1v1h-1v-1z" fill="#231C60"/><path d="M6 51h4v1H7v2H6v-3z"/><path d="M10 51h2v1h-2v-1z" fill="#8AEEFF"/><path d="M13 51h1v1h-1v-1z" fill="#3057A3"/><path d="M14 51h1v1h-1v-1z" fill="#231C60"/><path d="M25 51h1v2h-2v-1h1v-1z" fill="#1D181D"/><path d="M26 51h2v2h-1v1h-1v2h-1v1h1v1h-2v1h-2v-2h1v-1h1v-1h1v-2h1v-2z" fill="#593C38"/><path d="M28 51h1v2h-1v-2z" fill="#8D503D"/><path d="M29 51h1v1h3v1h-2v2h-1v-2h-1v-2z" fill="#593C38"/><path d="M31 51h2v1h-2v-1z" fill="#8E6350"/><path d="M33 51h2v1h-1v1h-1v-2z" fill="#8D503D"/><path d="M36 51h1v1h2v1h-2v1h-1v-3zm4 0h1v1h-1v-1z" fill="#AA7182"/><path d="M42 51h4v1h1v1h1v1h-2v-1h-2v1h-1v2h-1v1h-1v-3h-1v1h-1v1h-1v-3h1v-1h3v-1z" fill="#EBB692"/><path d="M48 51h1v1h1v1h1v1h-2v-1h-1v-2z" fill="#D09268"/><path d="M49 51h1v1h-1v-1z" fill="#AA7182"/><path d="M50 51h2v1h-2v-1z" fill="#8E6350"/><path d="M57 51h1v2h-2v-1h1v-1z" fill="#593C38"/><path d="M63 51h1v1h-1v-1z" fill="#F0AEF4"/><path d="M64 51h1v1h-1v-1z"/><path d="M7 52h1v1h2v1H7v-2z" fill="#3057A3"/><path d="M8 52h4v1H8v-1z" fill="#569AD8"/><path d="M12 52h1v1h-1v-1z" fill="#231C60"/><path d="M34 52h2v4h-1v-2h-1v-2z" fill="#8E6350"/><path d="M50 52h2v1h2v1h-1v2h1v2h-1v4h-1v-1h-1v-2h1v-3h-1v-1h-1v5h-1v-1h-1v6h-1v-1h-1v-1h-1v-1h-1v-3h-1v-1h2v2h2v-2h1v-1h1v-3h2v-1h-1v-1z" fill="#AA7182"/><path d="M52 52h1v1h-1v-1z" fill="#8E6350"/><path d="M53 52h3v1h-3v-1z" fill="#1D181D"/><path d="M60 52h1v1h-1v-1z" fill="#554D8E"/><path d="M61 52h1v1h-1v-1z" fill="#D27CD6"/><path d="M62 52h1v1h-1v-1z" fill="#F8CFF1"/><path d="M63 52h1v1h-1v-1z"/><path d="M10 53h1v1h-1v-1z" fill="#231C60"/><path d="M23 53h1v1h-1v-1z" fill="#1D181D"/><path d="M24 53h1v1h-1v-1z"/><path d="M27 53h1v2h-1v2h-2v-1h1v-2h1v-1z" fill="#8D503D"/><path d="M28 53h1v1h-1v-1z" fill="#593C38"/><path d="M29 53h1v2h1v3h-1v1h-1v1h-2v-1h1v-2h2v-1h-1v-3z" fill="#8D503D"/><path d="M31 53h2v1h-1v2h1v1h-2v-4z" fill="#8E6350"/><path d="M33 53h1v2h-1v1h-1v-2h1v-1z" fill="#AA7182"/><path d="M37 53h1v2h-1v1h-1v-2h1v-1zm7 0h2v2h-2v1h-1v-2h1v-1z" fill="#D09268"/><path d="M48 53h1v1h-1v-1z" fill="#AA7182"/><path d="M54 53h1v1h-1v-1z" fill="#593C38"/><path d="M55 53h5v1h-1v1h-3v-1h-1v-1z" fill="#554D8E"/><path d="M60 53h1v1h-1v-1z" fill="#D27CD6"/><path d="M61 53h1v1h-1v-1z" fill="#F8CFF1"/><path d="M62 53h1v1h-1v-1zM7 54h1v1H7v-1z"/><path d="M8 54h2v1H8v-1z" fill="#231C60"/><path d="M15 54h4v1h-2v1h-4v-1h2v-1z" fill="#302839"/><path d="M19 54h2v1h-2v-1z" fill="#231C60"/><path d="M21 54h2v1h-2v-1z" fill="#1D181D"/><path d="M23 54h1v2h-1v1h-1v-1h-1v-1h2v-1z"/><path d="M24 54h1v1h-1v-1zm4 0h1v2h-1v-2z" fill="#1D181D"/><path d="M34 54h1v3h-1v2h-1v2h-1v-3h1v-2h1v-2z" fill="#593C38"/><path d="M40 54h1v3h-1v1h-1v-3h1v-1z" fill="#D09268"/><path d="M46 54h1v1h-1v-1z" fill="#AA7182"/><path d="M47 54h2v3h-1v-1h-1v-2z" fill="#D09268"/><path d="M53 54h2v2h-2v-2z" fill="#8E6350"/><path d="M55 54h1v2h-1v-2z" fill="#593C38"/><path d="M59 54h1v1h-1v-1z" fill="#D27CD6"/><path d="M60 54h1v1h-1v-1z" fill="#F8CFF1"/><path d="M61 54h1v1h-1v-1zM8 55h2v1H8v-1z"/><path d="M10 55h3v1h-3v-1z" fill="#231C60"/><path d="M17 55h4v1h-4v-1z" fill="#1D181D"/><path d="M27 55h1v1h-1v-1z" fill="#593C38"/><path d="M33 55h1v1h-1v-1z" fill="#8E6350"/><path d="M37 55h1v2h-1v1h-1v2h-1v1h-1v-2h1v-3h2v-1z" fill="#AA7182"/><path d="M44 55h2v1h-1v2h-1v-3z" fill="#EBB692"/><path d="M46 55h1v1h1v2h-1v-1h-1v-2z" fill="#8E6350"/><path d="M50 55h1v1h1v2h-1v-1h-1v-2z" fill="#D09268"/><path d="M56 55h2v2h-1v-1h-1v-1z" fill="#231C60"/><path d="M58 55h1v2h-1v-2z" fill="#D27CD6"/><path d="M59 55h1v1h-1v-1z" fill="#F0AEF4"/><path d="M60 55h1v1h-1v-1zm-50 1h11v1H10v-1z"/><path d="M27 56h1v2h-1v1h-1v1h3v1h-5v-1h-2v-1h2v-1h2v-1h1v-1z" fill="#1D181D"/><path d="M28 56h1v1h-1v-1z" fill="#593C38"/><path d="M29 56h1v1h-1v-1zm9 0h1v2h-1v-2z" fill="#8E6350"/><path d="M42 56h1v1h-1v-1z" fill="#AA7182"/><path d="M43 56h1v2h-1v-2z" fill="#8E6350"/><path d="M45 56h1v2h-1v-2z" fill="#AA7182"/><path d="M54 56h2v2h-1v1h-1v-3z" fill="#8D503D"/><path d="M56 56h1v1h-1v-1z" fill="#593C38"/><path d="M59 56h1v2h-1v-2zm-38 1h1v3h-2v-1h1v-2z"/><path d="M31 57h1v1h-1v-1z" fill="#593C38"/><path d="M32 57h1v1h-1v-1z" fill="#8D503D"/><path d="M34 57h1v2h-1v-2z" fill="#8E6350"/><path d="M37 57h1v2h-2v-1h1v-1z" fill="#D09268"/><path d="M40 57h2v1h-1v2h1v1h-2v1h-1v-2h-1v1h-1v-2h1v-1h2v-1z" fill="#AA7182"/><path d="M42 57h1v2h-1v1h-1v-2h1v-1zm4 0h1v3h-2v-2h1v-1z" fill="#D09268"/><path d="M50 57h1v1h-1v-1z" fill="#8D503D"/><path d="M56 57h1v1h1v2h-2v-1h-1v-1h1v-1z" fill="#8E6350"/><path d="M57 57h1v1h-1v-1z" fill="#593C38"/><path d="M58 57h1v1h-1v-1z" fill="#231C60"/><path d="M27 58h1v1h-1v-1zm3 0h1v1h-1v-1z" fill="#593C38"/><path d="M31 58h1v5h-1v-3h-2v-1h2v-1z" fill="#1D181D"/><path d="M50 58h1v3h1v3h-1v-1h-1v3h-1v-1h-1v-3h1v-2h1v-2z" fill="#8E6350"/><path d="M51 58h1v1h-1v-1z" fill="#8D503D"/><path d="M53 58h1v4h1v2h-1v-1h-1v-5z" fill="#8E6350"/><path d="M58 58h1v1h-1v-1z"/><path d="M26 59h1v1h-1v-1z" fill="#593C38"/><path d="M33 59h1v2h1v-1h1v-1h1v2h-1v1h-2v1h-1v-1h-1v-1h1v-2z" fill="#8E6350"/><path d="M42 59h1v1h-1v-1z" fill="#AA7182"/><path d="M43 59h1v1h-1v-1z" fill="#8D503D"/><path d="M48 59h1v1h-1v-1z" fill="#8E6350"/><path d="M54 59h1v1h2v1h-1v2h-1v-2h-1v-2z" fill="#593C38"/><path d="M55 59h1v1h-1v-1zm3 0h1v1h-1v-1z" fill="#8D503D"/><path d="M59 59h1v2h-3v-1h2v-1zm-41 1h2v1h-2v-1z"/><path d="M20 60h4v1h5v-1h2v3h-1v3h-1v-1h-5v-1h-4v-1h-3v-1h1v-1h2v-1z" fill="#231C60"/><path d="M38 60h1v2h-1v-2z" fill="#8D503D"/><path d="M42 60h1v1h-1v-1z" fill="#8E6350"/><path d="M43 60h1v3h-1v-1h-1v-1h1v-1z" fill="#593C38"/><path d="M48 60h1v2h-1v-2z" fill="#8D503D"/><path d="M17 61h1v1h-1v-1z"/><path d="M36 61h1v3h-1v1h-1v-3h1v-1z" fill="#AA7182"/><path d="M37 61h1v3h-1v-3z" fill="#593C38"/><path d="M40 61h2v2h-1v-1h-1v-1zm14 0h1v1h-1v-1z" fill="#8D503D"/><path d="M56 61h1v2h-1v-2zm-40 1h1v1h1v1h-2v-2z"/><path d="M32 62h1v1h-1v-1z" fill="#AA7182"/><path d="M34 62h1v2h-1v1h-1v1h-2v-1h1v-1h1v-1h1v-1z" fill="#593C38"/><path d="M38 62h2v1h-1v1h-1v-2z" fill="#8E6350"/><path d="M40 62h1v3h-2v-2h1v-1z" fill="#AA7182"/><path d="M42 62h1v1h1v1h-1v1h-1v2h-1v-1h-1v-1h1v-2h1v-1zm2 0h1v1h-1v-1z" fill="#8E6350"/><path d="M52 62h1v4h-1v-1h-1v1h-1v-3h1v1h1v-2z" fill="#8D503D"/><path d="M18 63h2v1h-2v-1z" fill="#3057A3"/><path d="M30 63h1v2h-1v-2z" fill="#1D181D"/><path d="M31 63h2v1h-1v1h-1v-2z" fill="#8E6350"/><path d="M44 63h1v1h1v1h1v3h1v1h1v1h2v1h-3v-1h-1v-1h-1v-2h-1v5h-1v-1h-1v-2h1v-2h-1v-2h1v-2z" fill="#593C38"/><path d="M45 63h1v1h-1v-1z" fill="#8E6350"/><path d="M53 63h1v1h-1v-1z" fill="#593C38"/><path d="M55 63h1v2h-2v-1h1v-1zm-37 1h2v1h-2v-1z"/><path d="M20 64h4v1h5v1h2v1h-4v-1h-5v-1h-2v-1z" fill="#3057A3"/><path d="M34 64h1v2h-1v-2zm2 0h2v4h-1v-3h-1v-1z" fill="#8E6350"/><path d="M38 64h1v3h-1v-3z" fill="#593C38"/><path d="M43 64h1v1h-1v-1z" fill="#8D503D"/><path d="M46 64h1v1h-1v-1z" fill="#8E6350"/><path d="M53 64h1v1h-1v-1z" fill="#1D181D"/><path d="M20 65h2v1h-2v-1zm10 0h1v1h-1v-1z"/><path d="M33 65h1v2h-1v1h-1v-2h1v-1z" fill="#1D181D"/><path d="M35 65h2v2h-1v-1h-1v-1z" fill="#593C38"/><path d="M39 65h1v2h-1v-2zm3 0h1v1h-1v-1z" fill="#8D503D"/><path d="M47 65h1v1h1v3h-1v-1h-1v-3z" fill="#1D181D"/><path d="M48 65h1v1h-1v-1zm3 0h1v1h-1v-1z" fill="#593C38"/><path d="M53 65h1v2h-2v-1h1v-1zm-31 1h4v1h-4v-1z"/><path d="M26 66h1v1h-1v-1z" fill="#231C60"/><path d="M31 66h1v2h-6v-1h5v-1z"/><path d="M34 66h1v1h1v1h-2v1h-1v-2h1v-1z" fill="#593C38"/><path d="M35 66h1v1h-1v-1z" fill="#8E6350"/><path d="M40 66h1v1h1v1h1v1h-1v1h-1v2h1v1h2v1h1v2h-1v-1h-1v-1h-2v-1h-1v-5h-1v-1h1v-1z" fill="#593C38"/><path d="M42 66h1v1h1v2h-1v-1h-1v-2z" fill="#1D181D"/><path d="M49 66h1v1h-1v-1z" fill="#8D503D"/><path d="M50 66h1v2h-1v1h-1v-2h1v-1z" fill="#593C38"/><path d="M51 66h1v1h-1v-1zm-15 1h1v4h-2v-2h-1v-1h2v-1zm2 0h1v1h1v4h-1v-1h-1v-4z" fill="#1D181D"/><path d="M45 67h1v2h1v1h1v1h-1v1h1v2h-1v-1h-1v2h1v1h1v1h2v1h2v1h-4v-1h-2v-2h-1v-2h-1v-1h-1v-2h1v1h1v-5z" fill="#8E6350"/><path d="M51 67h1v3h-2v-1h1v-2zm-19 1h1v1h2v1h-3v-2z"/><path d="M37 68h1v3h-1v-3z" fill="#593C38"/><path d="M50 68h1v1h-1v-1z" fill="#1D181D"/><path d="M42 69h1v2h-1v-2z" fill="#8E6350"/><path d="M49 69h1v1h-1v-1zm3 0h1v1h-1v-1z" fill="#1D181D"/><path d="M53 69h2v1h-2v-1z" fill="#593C38"/><path d="M55 69h1v2h-1v-2zm-14 1h1v1h1v2h-1v-1h-1v-2z" fill="#1D181D"/><path d="M51 70h4v1h-2v2h-3v-1h-2v-1h3v-1z" fill="#8E6350"/><path d="M35 71h4v1h-4v-1z"/><path d="M47 71h1v1h-1v-1z" fill="#AA7182"/><path d="M53 71h5v2h-1v-1h-4v-1z" fill="#593C38"/><path d="M39 72h1v1h-1v-1z"/><path d="M48 72h2v1h1v1h1v1h1v1h-2v-1h-1v-1h-2v-2zm5 0h2v1h-1v1h-1v-2z" fill="#AA7182"/><path d="M55 72h2v1h-1v1h-1v1h-3v-1h2v-1h1v-1z" fill="#8E6350"/><path d="M40 73h1v1h-1v-1z"/><path d="M46 73h1v1h1v1h1v1h1v1h-2v-1h-1v-1h-1v-2z" fill="#AA7182"/><path d="M51 73h2v1h-2v-1z" fill="#D09268"/><path d="M56 73h1v1h-1v-1z" fill="#1D181D"/><path d="M41 74h1v2h-1v-2z"/><path d="M42 74h1v1h1v2h-1v-1h-1v-2zm6 0h2v1h-2v-1z" fill="#8E6350"/><path d="M55 74h1v1h-1v-1z" fill="#1D181D"/><path d="M49 75h2v1h2v1h-3v-1h-1v-1z" fill="#D09268"/><path d="M53 75h3v1h-3v-1zm-11 1h1v2h1v1h-2v-3z"/><path d="M44 76h1v1h-1v-1z" fill="#1D181D"/><path d="M45 76h1v1h-1v-1z" fill="#593C38"/><path d="M53 76h2v1h-1v1h-4v-1h3v-1z" fill="#AA7182"/><path d="M55 76h1v1h-1v-1z" fill="#8E6350"/><path d="M56 76h1v1h-1v-1z"/><path d="M43 77h1v1h-1v-1z" fill="#593C38"/><path d="M44 77h2v1h-2v-1z"/><path d="M54 77h1v1h-1v-1z" fill="#8E6350"/><path d="M55 77h1v1h-1v-1zm-9 1h1v1h-1v-1z"/><path d="M47 78h1v1h-1v-1zm5 0h1v1h-1v-1z" fill="#593C38"/><path d="M53 78h2v1h-2v-1zm-6 1h6v1h-6v-1z"/></svg>